<svg width="19" height="12" viewBox="0 0 19 12" fill="none" xmlns="http://www.w3.org/2000/svg">
<path fill-rule="evenodd" clip-rule="evenodd" d="M17.8391 1.71426H0.775613C0.349031 1.71426 0 1.32855 0 0.857125C0 0.385703 0.349021 0 0.775613 0H17.8391C18.2657 0 18.6147 0.385713 18.6147 0.857125C18.6147 1.32855 18.2657 1.71426 17.8391 1.71426Z" fill="black"/>
<path fill-rule="evenodd" clip-rule="evenodd" d="M17.8391 6.85662H0.775613C0.349031 6.85662 0 6.4709 0 5.99948C0 5.52806 0.349021 5.14236 0.775613 5.14236H17.8391C18.2657 5.14236 18.6147 5.52807 18.6147 5.99948C18.6147 6.4709 18.2657 6.85662 17.8391 6.85662Z" fill="black"/>
<path fill-rule="evenodd" clip-rule="evenodd" d="M17.8391 12H0.775613C0.349031 12 0 11.6143 0 11.1429C0 10.6715 0.349021 10.2857 0.775613 10.2857H17.8391C18.2657 10.2857 18.6147 10.6715 18.6147 11.1429C18.6147 11.6143 18.2657 12 17.8391 12Z" fill="black"/>
</svg>
