<svg width="156" height="59" viewBox="0 0 156 59" fill="none" xmlns="http://www.w3.org/2000/svg">
<path fill-rule="evenodd" clip-rule="evenodd" d="M42.9642 44.8874V16.3426H50.0426V19.766C52.5366 15.9373 55.4373 15.5884 58.5118 15.5884H59.4991V23.3097C58.8088 23.1944 58.1102 23.1363 57.4103 23.136C52.7682 23.136 50.5057 25.4564 50.5057 30.0391V44.892L42.9642 44.8874Z" fill="#054240"/>
<path fill-rule="evenodd" clip-rule="evenodd" d="M80.1923 44.8878L73.9276 32.0658L70.2711 35.8365V44.8878H62.6732V5.90069H70.2726V27.192L79.6667 16.343H88.8917L79.3224 26.8446L88.6631 44.8878H80.1923Z" fill="#054240"/>
<path fill-rule="evenodd" clip-rule="evenodd" d="M91.802 12.9212V5.90069H99.3434V12.9212H91.802ZM91.802 44.8878V16.343H99.3434V44.8878H91.802Z" fill="#054240"/>
<path fill-rule="evenodd" clip-rule="evenodd" d="M120.62 41.1158C119.574 43.6693 116.442 45.1775 112.903 45.1775C106.928 45.1775 102.461 41.1158 102.461 34.8511V16.3432H110.002V33.7481C110.002 37.2872 111.628 39.0804 114.818 39.0804C118.241 39.0804 120.62 36.8179 120.62 33.7481V16.3432H128.161V45.6422C128.161 53.7063 122.359 58.4048 115.049 58.4048C106.696 58.4048 102.461 53.8221 102.461 46.4543H109.481C109.481 49.8182 111.453 51.907 115.398 51.907C118.124 51.907 120.62 49.5288 120.62 45.758L120.62 41.1158Z" fill="#054240"/>
<path fill-rule="evenodd" clip-rule="evenodd" d="M148.975 44.8874C148.724 44.0569 148.57 43.2 148.518 42.3339C146.719 44.3069 143.702 45.6415 139.874 45.6415C133.376 45.6415 130.359 42.4497 130.359 37.8091C130.359 29.5714 135.871 28.642 143.47 27.6014C147.241 27.0788 148.285 26.3247 148.285 24.3532C148.285 22.4961 146.429 21.3946 143.47 21.3946C140.047 21.3946 138.655 23.0705 138.307 25.6284H131.281C131.397 19.711 134.646 15.5914 143.812 15.5914C152.863 15.5914 156 19.6532 156 26.8473V44.8874L148.975 44.8874ZM148.454 30.9044C147.692 31.6586 146.365 32.0654 143.579 32.5803C139.285 33.3923 137.893 34.6096 137.893 37.0473C137.893 39.1939 139.169 40.2375 141.549 40.2375C145.437 40.2375 148.337 37.3947 148.396 34.0307L148.454 30.9044Z" fill="#054240"/>
<path fill-rule="evenodd" clip-rule="evenodd" d="M37.7164 16.352L31.2689 19.5515C33.7657 24.2038 33.1491 29.912 29.7162 33.9237C26.2834 37.9355 20.7392 39.4272 15.7568 37.6796C10.7744 35.932 7.3767 31.304 7.20195 26.0269C7.02718 20.7498 10.1112 15.9071 14.9671 13.8336L16.4023 20.1898L20.9866 13.8474L25.5815 7.51253L18.7165 3.75703L11.8469 0L13.3704 6.74162C3.7714 10.1133 -1.76487 20.1559 0.508553 30.0727C2.78197 39.9894 12.14 46.6175 22.2492 45.471C32.3584 44.3246 39.9945 35.7693 39.9896 25.5953C39.9954 22.3751 39.2151 19.2022 37.7164 16.352V16.352Z" fill="#054240"/>
</svg>
