<svg width="232" height="87" viewBox="0 0 232 87" fill="none" xmlns="http://www.w3.org/2000/svg">
<path fill-rule="evenodd" clip-rule="evenodd" d="M63.8943 66.7557V24.3044H74.4211V29.3957C78.13 23.7017 82.444 23.1829 87.0162 23.1829H88.4846V34.6659C87.458 34.4943 86.419 34.4079 85.3782 34.4075C78.4745 34.4075 75.1098 37.8583 75.1098 44.6736V66.7625L63.8943 66.7557Z" fill="#054240"/>
<path fill-rule="evenodd" clip-rule="evenodd" d="M119.26 66.7559L109.943 47.6873L104.506 53.295V66.7559H93.2061V8.77522H104.508V40.4392L118.478 24.3047H132.198L117.966 39.9226L131.858 66.7559L119.26 66.7559Z" fill="#054240"/>
<path fill-rule="evenodd" clip-rule="evenodd" d="M136.526 19.2159V8.77522H147.741V19.2159H136.526ZM136.526 66.7559V24.3047H147.741V66.7559H136.526Z" fill="#054240"/>
<path fill-rule="evenodd" clip-rule="evenodd" d="M179.382 61.1456C177.828 64.9431 173.17 67.1861 167.906 67.1861C159.02 67.1861 152.377 61.1456 152.377 51.8289V24.3044H163.592V50.1884C163.592 55.4518 166.01 58.1186 170.754 58.1186C175.845 58.1186 179.382 54.7539 179.382 50.1884V24.3044H190.598V67.8771C190.598 79.8699 181.97 86.8574 171.099 86.8574C158.676 86.8574 152.377 80.042 152.377 69.0848H162.817C162.817 74.0876 165.749 77.194 171.617 77.194C175.671 77.194 179.382 73.6572 179.382 68.0493V61.1456Z" fill="#054240"/>
<path fill-rule="evenodd" clip-rule="evenodd" d="M221.553 66.7562C221.179 65.5211 220.951 64.2467 220.873 62.9588C218.197 65.8929 213.711 67.8777 208.017 67.8777C198.354 67.8777 193.868 63.1309 193.868 56.2295C193.868 43.9785 202.065 42.5964 213.367 41.0488C218.974 40.2717 220.527 39.1503 220.527 36.2183C220.527 33.4563 217.767 31.8182 213.367 31.8182C208.276 31.8182 206.205 34.3106 205.688 38.1147H195.238C195.411 29.3145 200.243 23.1879 213.874 23.1879C227.335 23.1879 232 29.2285 232 39.9274V66.7562L221.553 66.7562ZM220.778 45.961C219.645 47.0826 217.672 47.6875 213.527 48.4534C207.142 49.661 205.072 51.4713 205.072 55.0966C205.072 58.289 206.97 59.841 210.51 59.841C216.292 59.841 220.604 55.6132 220.692 50.6104L220.778 45.961Z" fill="#054240"/>
<path fill-rule="evenodd" clip-rule="evenodd" d="M56.091 24.3184L46.5023 29.0765C50.2156 35.9953 49.2985 44.4844 44.1933 50.4505C39.0881 56.4168 30.8429 58.6352 23.4332 56.0363C16.0234 53.4373 10.9705 46.5546 10.7106 38.7066C10.4506 30.8586 15.0372 23.6566 22.2587 20.5731L24.3931 30.0258L31.2107 20.5935L38.0443 11.1725L27.8348 5.58737L17.6185 0L19.8842 10.026C5.60874 15.0403 -2.62466 29.9754 0.756306 44.7234C4.13728 59.4713 18.0543 69.3284 33.0884 67.6234C48.1226 65.9185 59.4789 53.1953 59.4715 38.0647C59.4803 33.2758 58.3198 28.5571 56.091 24.3184Z" fill="#054240"/>
</svg>
