<svg width="21" height="15" viewBox="0 0 21 15" fill="none" xmlns="http://www.w3.org/2000/svg">
<path fill-rule="evenodd" clip-rule="evenodd" d="M8.73018 13.8113L7.97766 14.5639C7.65903 14.8825 7.1438 14.8825 6.82856 14.5639L0.238973 7.97766C-0.0796576 7.65903 -0.0796576 7.1438 0.238973 6.82856L6.82856 0.238973C7.14719 -0.0796576 7.66242 -0.0796576 7.97766 0.238973L8.73018 0.991488C9.0522 1.31351 9.04542 1.83892 8.71662 2.15416L4.63202 6.04554H20.1866C20.6374 6.04554 21.0001 6.40823 21.0001 6.85907V7.94378C21.0001 8.39461 20.6374 8.75731 20.1866 8.75731H4.63202L8.71662 12.6487C9.04881 12.9639 9.05559 13.4893 8.73018 13.8114V13.8113Z" fill="black"/>
</svg>
