<svg width="52" height="26" viewBox="0 0 52 26" fill="none" xmlns="http://www.w3.org/2000/svg">
<mask id="path-1-inside-1_0_462" fill="white">
<path fill-rule="evenodd" clip-rule="evenodd" d="M51.8152 0.0926532C51.8152 14.4008 40.2162 26 25.908 26C11.5998 26 0.000729361 14.4009 0.000729361 0.0926532C-0.224997 -0.0802105 52.0189 0.0302466 51.8153 0.0926532H51.8152Z"/>
</mask>
<path d="M51.8152 0.0926532V-0.91196H50.8106V0.0926532H51.8152ZM0.000729361 0.0926532H1.00534V-0.403364L0.611537 -0.704944L0.000729361 0.0926532ZM51.8153 0.0926532V1.09727H51.9657L52.1096 1.05318L51.8153 0.0926532ZM50.8106 0.0926532C50.8106 13.846 39.6613 24.9953 25.908 24.9953V27.0046C40.771 27.0046 52.8199 14.9557 52.8199 0.0926532H50.8106ZM25.908 24.9953C12.1546 24.9953 1.00534 13.846 1.00534 0.0926532H-1.00388C-1.00388 14.9557 11.045 27.0046 25.908 27.0046V24.9953ZM0.611537 -0.704944C0.722158 -0.606362 0.936036 -0.27295 0.997076 -0.0312336C0.991837 0.250801 0.811681 0.683106 0.686453 0.824594C0.605151 0.892835 0.462425 0.982552 0.406567 1.00926C0.370138 1.0244 0.307102 1.04673 0.281806 1.05438C0.232196 1.0686 0.193565 1.07526 0.180696 1.07742C0.163526 1.0803 0.151058 1.08184 0.146095 1.08243C0.133263 1.08394 0.139809 1.08276 0.182939 1.08049C0.259767 1.07644 0.387867 1.07211 0.571195 1.06782C0.934117 1.05932 1.47793 1.05172 2.18025 1.04503C3.58323 1.03166 5.6019 1.02205 8.03284 1.01556C12.8939 1.00259 19.3955 1.00214 25.8986 1.00904C32.4017 1.01594 38.9052 1.0302 43.77 1.04662C46.2026 1.05484 48.2247 1.06359 49.6319 1.07224C50.3358 1.07656 50.8844 1.08085 51.2531 1.08502C51.4381 1.08711 51.5746 1.08913 51.6619 1.09104C51.7072 1.09204 51.7318 1.09285 51.7414 1.09328C51.7515 1.09374 51.7338 1.09323 51.707 1.09045C51.6981 1.08948 51.6741 1.08644 51.66 1.08438C51.6364 1.08042 51.5661 1.06513 51.5204 1.0523C51.4036 1.00827 50.9432 0.589818 50.8113 0.105414C50.9353 -0.391235 51.4012 -0.822602 51.5209 -0.867874L52.1096 1.05318C52.2301 1.00766 52.6964 0.576053 52.8204 0.0791602C52.6885 -0.405488 52.2277 -0.824189 52.1101 -0.868457C52.0636 -0.881534 51.9921 -0.897075 51.9669 -0.901274C51.9512 -0.903587 51.9252 -0.906868 51.914 -0.908083C51.8776 -0.911853 51.8441 -0.913352 51.8322 -0.913891C51.7978 -0.915452 51.7534 -0.916659 51.7059 -0.9177C51.6074 -0.919856 51.4622 -0.921974 51.2758 -0.924079C50.9017 -0.928304 50.3489 -0.932618 49.6442 -0.936948C48.2342 -0.945612 46.21 -0.954375 43.7768 -0.962591C38.9102 -0.979024 32.4051 -0.993281 25.9008 -1.00019C19.3967 -1.00709 12.8923 -1.00664 8.02748 -0.993659C5.59548 -0.987168 3.57122 -0.97754 2.16111 -0.964105C1.45688 -0.957395 0.901616 -0.949699 0.524144 -0.940857C0.337275 -0.93648 0.184852 -0.931624 0.0772314 -0.925954C0.0281376 -0.923368 -0.0335216 -0.919557 -0.0897389 -0.912912C-0.103292 -0.91131 -0.182091 -0.902788 -0.271813 -0.877071C-0.299405 -0.868767 -0.364343 -0.845771 -0.402278 -0.82997C-0.459642 -0.802603 -0.603478 -0.712221 -0.685494 -0.643313C-0.811435 -0.501159 -0.991906 -0.0681845 -0.997063 0.214521C-0.935941 0.456908 -0.721581 0.790994 -0.610079 0.89025L0.611537 -0.704944ZM51.8153 -0.91196H51.8152V1.09727H51.8153V-0.91196Z" fill="#707070" mask="url(#path-1-inside-1_0_462)"/>
</svg>
